# xmcd CD database file generated by Grip 3.2.0
# 
# Track frame offsets:
#       150
#       10179
#       29480
#       54009
#       88390
#       124346
# 
# Disc length: 2332 seconds
# 
# Revision: 1
# Processed by: cddbd v1.5.2PL0 Copyright (c) Steve Scherf et al.
# Submitted via: Grip 3.2.0
# 
DISCID=47091a06
DTITLE=Gato Barbieri - Chapter Two: Hasta Siempre
DYEAR=1973
DGENRE=Jazz
TTITLE0=Encontros, Part One
TTITLE1=Encontros, Part Three
TTITLE2=Latino America
TTITLE3=Marissea
TTITLE4=Para Nosotros
TTITLE5=Juana Azurduy
EXTD=YEAR: 1973
EXTT0=
EXTT1=
EXTT2=
EXTT3=
EXTT4=
EXTT5=
PLAYORDER=
